/* XPM */
static char *_5cd6dffa1dd401987f992e328099862hUkg0M4RL82KTPdC[] = {
/* columns rows colors chars-per-pixel */
"45 45 138 2 ",
"   c None",
".  c #E67500",
"X  c #E47D00",
"o  c #E57D00",
"O  c #E87A00",
"+  c #E87D00",
"@  c #E58100",
"#  c #E48200",
"$  c #E58300",
"%  c #E58400",
"&  c #E98200",
"*  c #E98900",
"=  c #E98A00",
"-  c #EB9204",
";  c #F39600",
":  c #F49A00",
">  c #F39D00",
",  c #F39E00",
"<  c #E4851C",
"1  c #EE9812",
"2  c #EC941B",
"3  c #F3A013",
"4  c #F3A016",
"5  c #F3A017",
"6  c #E48722",
"7  c #E38528",
"8  c #E38529",
"9  c #E5892D",
"0  c #EF9A22",
"q  c #E28534",
"w  c #E38837",
"e  c #E48A37",
"r  c #E48B37",
"t  c #E18538",
"y  c #E3893B",
"u  c #E58B38",
"i  c #E48B3B",
"p  c #E38B3C",
"a  c #E38A3D",
"s  c #E48C3C",
"d  c #E48C3D",
"f  c #E48C3E",
"g  c #E79035",
"h  c #EB9630",
"j  c #EA973C",
"k  c #ED9D48",
"l  c #E69251",
"z  c #E49252",
"x  c #F6AB40",
"c  c #F7AD40",
"v  c #F7AE46",
"b  c #F6B050",
"n  c #E39766",
"m  c #EEA764",
"M  c #EFA467",
"N  c #F4B260",
"B  c #F5B260",
"V  c #ECA378",
"C  c #F1B779",
"Z  c #ECA881",
"A  c #E4AC89",
"S  c #E1A98D",
"D  c #E7AD8F",
"F  c #F5BC80",
"G  c #DFB7A9",
"H  c #DFB8AA",
"J  c #DFB9AB",
"K  c #DEB9AD",
"L  c #E4B9A1",
"P  c #E9BAA5",
"I  c #E0BCB0",
"U  c #EDC098",
"Y  c #FCCA9D",
"T  c #DEC1BA",
"R  c #DEC2BC",
"E  c #DEC3BD",
"W  c #DFC4BC",
"Q  c #F6CDA9",
"!  c #F6CEAB",
"~  c #FED1A8",
"^  c #FFD2AE",
"/  c #E9C0B3",
"(  c #F0C5B5",
")  c #F3C6B5",
"_  c #DDC8C5",
"`  c #DDCCCC",
"'  c #DAD3D8",
"]  c #DBD5DA",
"[  c #DBD7DB",
"{  c #D9D6DD",
"}  c #DBD7DD",
"|  c #DFD8D8",
" . c #E7C9C1",
".. c #EDCCC2",
"X. c #E2CCC9",
"o. c #E5D4C9",
"O. c #E4D4CB",
"+. c #F8D3C7",
"@. c #FFDFCA",
"#. c #E4D9D1",
"$. c #E0D9D7",
"%. c #E4DCD6",
"&. c #E1DAD8",
"*. c #E2DBDF",
"=. c #DADAE3",
"-. c #D7E3EE",
";. c #D8E2EC",
":. c #D9E2EC",
">. c #D9E3ED",
",. c #D6E4F3",
"<. c #D7E5F4",
"1. c #D7E5F5",
"2. c #D7E6F5",
"3. c #D9E4F0",
"4. c #D9E5F0",
"5. c #DAE5F1",
"6. c #D8E4F2",
"7. c #D9E6F2",
"8. c #D9E6F3",
"9. c #D9E7F3",
"0. c #DEE7F2",
"q. c #D8E8F5",
"w. c #D9E8F7",
"e. c #D9E9F7",
"r. c #DAEAF8",
"t. c #E4E3E7",
"y. c #EDE4E7",
"u. c #E4E2E8",
"i. c #E8E9EF",
"p. c #F2EAE8",
"a. c #E3EAF5",
"s. c #EBEAF1",
"d. c #FAF0F3",
"f. c #FDF3F1",
"g. c #FDF2F6",
"h. c #FFF8F6",
"j. c #FCF8FF",
"k. c #FEFEFF",
/* pixels */
"                                                                                          ",
"                                                                                          ",
"                                                                                          ",
"                                                                                          ",
"                                                                                          ",
"                                                                                          ",
"                                                                                          ",
"                                                                                          ",
"                                                                                          ",
"                                                                                          ",
"                                                                                          ",
"                                                                                          ",
"                                                                                          ",
"                                                                                          ",
"                                                                                          ",
"                                                                                          ",
"                                                                                          ",
"                                                <.<.<.<.<.                                ",
"                                              | h.p.p.f.$.                                ",
"                              0.:.:.:.:.:.-.:.U v B B b C t.                              ",
"                            o.~ Q Q Q Q Q Q Q m - h h 2 k Y o.,.                          ",
"                          &.^ : 3 , , 4 , , 4 g t 7 7 q r ; @.6.                          ",
"                        i.F 0 y s s s s s s s s s s s s i # ..6.                          ",
"                        k.m & p < J E # J E p # S ' { G % . +.6.                          ",
"                        =.K V # X X.a.P u.*.6 X A #.%.L r D _ 6.                          ",
"                          w. .9 i T 6.:.6.` l w j x c 1 n s.                              ",
"                            ] g.d.]         y.Z O * * + l j.w.                            ",
"                              w.w.          r.W ) / / ) I {                               ",
"                                              6.6.6.6.6.6.                                ",
"                                                                                          ",
"                                                                                          ",
"                                                                                          ",
"                                                                                          ",
"                                                                                          ",
"                                                                                          ",
"                                                                                          ",
"                                                                                          ",
"                                                                                          ",
"                                                                                          ",
"                                                                                          ",
"                                                                                          ",
"                                                                                          ",
"                                                                                          ",
"                                                                                          ",
"                                                                                          "
};
