/* XPM */
static char *_ee01905a25845ce85713c9ce25d2794cTYZTKq3YLaYENeX[] = {
/* columns rows colors chars-per-pixel */
"45 45 199 2 ",
"   c #000000",
".  c #040608",
"X  c #180D06",
"o  c #000019",
"O  c #0C151D",
"+  c #381F0A",
"@  c #3D230D",
"#  c #000023",
"$  c #00042C",
"%  c #030A2D",
"&  c #0F1921",
"*  c #0D182C",
"=  c #111B24",
"-  c #010333",
";  c #010C32",
":  c #000D3B",
">  c #021435",
",  c #0B1537",
"<  c #041835",
"1  c #04133C",
"2  c #0B163D",
"3  c #05193C",
"4  c #0C1B3D",
"5  c #121E34",
"6  c #111D3C",
"7  c #16232E",
"8  c #1A252E",
"9  c #1F282F",
"0  c #0D2436",
"q  c #062639",
"w  c #0E253B",
"e  c #06283B",
"r  c #0D293D",
"t  c #142434",
"y  c #192630",
"u  c #1D2A34",
"i  c #14223A",
"p  c #1C273C",
"a  c #152839",
"s  c #23292D",
"d  c #322C2F",
"f  c #202D37",
"g  c #2F2E30",
"h  c #212E38",
"j  c #27333A",
"k  c #24323C",
"l  c #363438",
"z  c #41280F",
"x  c #7C3E0E",
"c  c #663A17",
"v  c #793C1C",
"b  c #593B39",
"n  c #6D3723",
"m  c #7C3C21",
"M  c #7B491D",
"N  c #000945",
"B  c #000B45",
"V  c #021643",
"C  c #051746",
"Z  c #041B46",
"A  c #0D1B43",
"S  c #021B4A",
"D  c #0D1E49",
"F  c #111D41",
"G  c #101E48",
"H  c #0E2346",
"J  c #012C46",
"K  c #092C43",
"L  c #05264A",
"P  c #0D224B",
"I  c #122243",
"U  c #112A45",
"Y  c #11224A",
"T  c #122C4C",
"R  c #003246",
"E  c #003248",
"W  c #173345",
"Q  c #13334E",
"!  c #1C3A48",
"~  c #0E2151",
"^  c #0F2B52",
"/  c #122554",
"(  c #132B54",
")  c #152B59",
"_  c #192E5D",
"`  c #0D3752",
"'  c #143552",
"]  c #153956",
"[  c #193955",
"{  c #16345A",
"}  c #1D345E",
"|  c #153D5B",
" . c #1B3C5D",
".. c #273641",
"X. c #293743",
"o. c #2B3A46",
"O. c #253848",
"+. c #2C3C48",
"@. c #333A45",
"#. c #3C3B43",
"$. c #313E4B",
"%. c #1E3565",
"&. c #1E3A63",
"*. c #1E386A",
"=. c #233C65",
"-. c #243D6B",
";. c #223D72",
":. c #17405F",
">. c #18415F",
",. c #34414B",
"<. c #3A454E",
"1. c #3A4753",
"2. c #174260",
"3. c #1D4364",
"4. c #1F4368",
"5. c #214164",
"6. c #23456C",
"7. c #29416F",
"8. c #27486D",
"9. c #28496E",
"0. c #264372",
"q. c #264775",
"w. c #2B4673",
"e. c #294A73",
"r. c #2B4D7B",
"t. c #2D4E7E",
"y. c #2E4E7F",
"u. c #324E7E",
"i. c #27547D",
"p. c #2E527C",
"a. c #31517F",
"s. c #434E57",
"d. c #424E5B",
"f. c #445059",
"g. c #49555F",
"h. c #4E5A63",
"j. c #515D65",
"k. c #9E571E",
"l. c #884524",
"z. c #8C562C",
"x. c #AB642B",
"c. c #B7702E",
"v. c #C4712C",
"b. c #CB762C",
"n. c #C77A35",
"m. c #96724A",
"M. c #A46A43",
"N. c #A66B43",
"B. c #AD7A48",
"V. c #D2823B",
"C. c #DE863A",
"Z. c #E18A3B",
"A. c #E98E3C",
"S. c #EE933F",
"D. c #BE8A48",
"F. c #DA9B4C",
"G. c #D7A051",
"H. c #DBB95B",
"J. c #FDAC4C",
"K. c #FFC357",
"L. c #FFD05D",
"P. c #DEC861",
"I. c #2A4B83",
"U. c #2F4F80",
"Y. c #2C4E85",
"T. c #314F81",
"R. c #2F5181",
"E. c #2A5781",
"W. c #2E5A85",
"Q. c #305283",
"!. c #315284",
"~. c #325284",
"^. c #325385",
"/. c #355A86",
"(. c #345589",
"). c #365B8A",
"_. c #385B8E",
"`. c #305692",
"'. c #355991",
"]. c #3A5D92",
"[. c #3F5E94",
"{. c #3F6597",
"}. c #3963A1",
"|. c #3964A3",
" X c #405F96",
".X c #41659B",
"XX c #42699E",
"oX c #446AA1",
"OX c #466CA3",
"+X c #466EA6",
"@X c #476FA8",
"#X c #4B6FA8",
"$X c #4B72AA",
"%X c #4F78B3",
"&X c #537BB6",
"*X c #557EBB",
"=X c #5680BE",
"-X c #5881BF",
";X c #5983C2",
/* pixels */
"0 0 0 0 0 0 0 0 0 0 0 0 0 4 4 0 0 0 0 0 0 0 0 0 0 0 0 0 0 4 4 0 0 0 0 0 0 0 0 0 0 0 0 0 A ",
"0 0 0 0 0 0 0 0 0 0 0 0 0 4 4 0 0 0 0 0 0 0 0 0 0 0 0 0 0 4 4 0 0 0 0 0 0 0 0 0 0 0 0 0 A ",
"0 w r r w w w w w w r w 0 A 4 0 w r r w w w w w w w r w 0 A w 0 w r w w w w w w r w 0 0 A ",
"0 U Q Q Q Q Q Q Q Q Q U 0 / H 0 Q Q Q Q Q Q Q Q Q Q Q U 0 / H w Q Q Q Q Q Q Q Q Q Q w 4 A ",
"q K K K K K K K K K K e q / P q K K K K K K K K K K K e q / P q K K K K K K K K K K e q A ",
"8.8.8.e.e.e.e.e.8.8.8.8.8.) &.8.8.8.e.e.e.e.e.8.e.e.8.8.8.) &.e.8.8.8.e.e.e.e.e.e.8.e. .2 ",
"oXoXoX+X@X+X+X@X+XoXoXoX.X .p.+XoX+X@X@X@X@X@X+X@X+XoXoX.X .a.+XoXXXoX+X@X+X@X@X+XoX+Xa.- ",
"_._._.].].].].].]._._.].).{ 0.]._.].].].].].].].].]._.].(.{ q.]._._._.].].].].].]._.].q.; ",
"U.U.U.y.y.y.y.y.y.U.U.R.y.) =.R.y.y.y.y.y.y.y.y.y.y.y.R.r.) =.R.y.y.y.y.y.y.y.y.y.y.Q.-., ",
"R.R.R.R.R.R.R.R.R.R.R.Q.y.) -.!.Q.Q.Q.Q.Q.Q.Q.Q.Q.Q.Q.!.y.) -.!.Q.Q.Q.Q.Q.Q.Q.Q.R.Q.!.-., ",
"6.6.6.6.6.6.6.6.6.6.6.6.4./ -.(.!.!.!.!.!.!.!.!.!.!.!.!.U.) -.!.!.!.!.Q.!.!.!.!.!.!.(.-., ",
"] ] ] ] ] ] ] ] ] ] ] ] ] / %.e.0.e.e.e.e.e.e.e.e.e.e.r.q.) &.r.e.e.e.e.e.e.e.e.e.e.r.&., ",
"Q Q Q Q Q Q Q Q Q Q Q Q Q / T W T ] | | | | | | | | | | | / { | | | | | | | | | | | | ' A ",
"D D D D D P / U t t t t t t t t t t a a a a a a a a a a a t t a a a a a T ( P P P P P P / ",
"I.I.I.I.Y.q./ i 8 h k k h k k h h h h h h h h h h h h h h k h h k k f 7 F %.I.I.I.I.Y.;./ ",
"}.}.}.}.|.`./ 5 f +.o.o.o.o.o.o.+.o.+.+.+.+.+.+.+.+.o.o.o.o.+.o.o.o.X.y 2 0.}.|.}.}.|.Y.D ",
"(.(.(.(.(.y./ 6 f o.y u o.o.o.o.o.o.+.+.+.+.+.+.+.+.o.o.o.o.o.X.7 k X.y A *.!.!.!.!.(.0.~ ",
"8.8.8.8.9.5./ i f o.k k o.o.o.o.o.h 8 8 8 8 8 8 8 8 X.o.o.o.o.o.k X.X.8 A %.Q.Q.Q.Q.!.0.~ ",
"| | | | | | / i u o.+.o.o.o.o.o.+.8                 k +.o.o.o.o.+.+...8 A %.y.y.y.y.p.-./ ",
"] ] ] ] ] ' / i u o.o.o.o.o.o.o.+.8               . k +.o.o.o.o.o.o...8 Y { 3.3.3.3.3.{ / ",
"P P P P P P / 4 7 ....o.o.o.o.o.+.u O & & & & & O = ..+.o.o.o.o.o.o...8 Y / ^ ^ ^ ^ ^ / / ",
";.;.;.;.;.*./ O.,.1.1.,.o.o.o.o.o.k u h h h h h u h X.O.R R J J R R K 7 Y ) %.%.%.%.%._ / ",
"}.}.}.}.|.`./ d.j.j.j.f.X.o.o.o.o.o.o.o.o.o.o.o.o.o.o.o.o.o.o.o.o.o...8 A %.Q.Q.Q.Q.!.0.~ ",
"'.'.'.'.'.Y./ $.<.<.<.s.g.,.o.o.o.o.o.o.o.o.o.o.o.o.J m.F.F.H.P.G.F.D.g N _ 5.5.3.3.5.} / ",
"8.8.8.8.e.5./ p f f 8 ,.g.,.o.o.o.o.o.o.o.o.o.o.o.o.Z B.J.J.K.L.J.J.F.d N ( Q Q Q Q Q ( / ",
"Q Q Q Q Q T / p s f 9 k o.o.o.o.o.o.o.o.o.o.o.o.o.o.J N.A.Z.C.C.C.A.n.d S ( ' Q Q Q Q ( / ",
"Z Z C 1 : V / i u X.X.X.o.o.o.o.o.o.o.o.o.o.o.o.o.o.J N.Z.z.c v c n.V.d S ~ 1 : V Z Z P / ",
"T.T.!.[..X(./ < y o.o.o.o.o.o.o.o.o.o.o.o.o.o.o.o.o.J N.C.+       c.V.d N -.[. X_.u.Q.-.~ ",
"XX.X+X*X;X#X) i j $.$.+.o.o.o.o.o.o.o.o.o.o.o.o.o.o.J N.Z.M . X @ n.V.d - T.=X;X%XXX+X!.D ",
"5.5.5.8.8.=./ d.j.h.j.s...o.o.o.o.o.o.o.o.o.o.o.o.o.J N.S.Z.z.z V.S.V.d N &.W.W.E.i.E.6./ ",
"> < > # o ; P 1.f.s.s.f.s.$.o.o.o.o.o.o.o.o.o.o.o.o.E z.b.b.k.x v.b.x.g S ) | | | :.2.{ Y ",
"} } =.-.-.=.D p j h u <.h.,.X.o.o.o.o.o.o.o.o.o.o.o.! b v v l.l.m v n 8 L ^ U U T T T U G ",
"XX.X+X*X;X@XY 7 s f 8 k $.o.o.o.o.o.o.o.o.o.o.o.o.o.o.@.#.#.#.#.#.#.l y I A : : > 2 2 A Y ",
"/./.).{.XX).Y 5 f k k X.o.o.o.o.o.o.o.o.o.o.o.o.o.o.o.O.! ! ! ! ! ! W t % 7.OX@X.X(._.q.A ",
"| | ] ` ` ` G 5 u o.o.o.X.X.X.X.X.X.X.X.X.X.X.X.X.X.X.X.X.X.X.X.X.o.k y # w.&X&X$X{.XXu.1 ",
"' ' ' ' ' Q G i y h h h f h f h h h h h h f h f h h f h f h h f f h u 8 F T [ [ [ ' [ T D ",
"3 3 > ; $ > D i y f f f f f f f f f f f f f f f f f f f f f f f f f u 7 I V # # # $ ; 3 Y ",
"7.7.q.u.!.w.Y 5 y f f f f f f f f f f f f f f f f f f f f f f f f f u 7 4 } !.!.!.u.w.} A ",
"oXXX@X*X;X$XY * y f f f f f f f f f f f f f f f f f f f f f f f f f u 7 # u.-X;X-X*X$Xa.1 ",
"p.p.p./.).p.Y 5 y f h h f f f f f h h f f f f f f h f f f f f f h h u 7 , &././././.p.=.A ",
">.>.:.| | ] P t y f u u f f f f f u u f f f f f u u u f f f f u u u u 7 6 ^ | | | | 2.' D ",
"3.3.3.3.3. .P i y f 7 8 h f f f h 8 7 f f f f h u 7 u h f f h u 7 u u 7 6 ( 3.3.3.3.3.{ A ",
"] ] ] ] ] ' P i y h u u h h f h h u u f h f h h f u f h f h h f u f u 8 F T ] ] ] ] ] T A ",
"U U U U U H A t 8 u u u u u u u u u u u u u u u u u u u u u u u u u y 7 6 H U U U U U H 4 ",
"2 2 2 2 2 2 4 t 7 7 7 7 7 7 7 7 7 7 7 7 7 7 7 7 7 7 7 7 7 7 7 7 7 7 7 t 6 2 2 2 2 2 2 4 A "
};
