/* XPM */
static char *_c7fedcb22ef4299b5d2c6886998e2cfssvcMPqLSSz1Rba4[] = {
/* columns rows colors chars-per-pixel */
"45 45 156 2 ",
"   c #020304",
".  c #0B0606",
"X  c #050D06",
"o  c #0E0807",
"O  c #00000D",
"+  c #0E0908",
"@  c #180000",
"#  c #150907",
"$  c #1A0B07",
"%  c #18040A",
"&  c #150B09",
"*  c #1D0C08",
"=  c #1E100C",
"-  c #030013",
";  c #0E0415",
":  c #0B0F13",
">  c #1E1314",
",  c #260000",
"<  c #230E06",
"1  c #200E0A",
"2  c #310C00",
"3  c #201107",
"4  c #2C1205",
"5  c #25130E",
"6  c #291509",
"7  c #391400",
"8  c #3B1904",
"9  c #331B0C",
"0  c #391B0B",
"q  c #251411",
"w  c #291611",
"e  c #2E1913",
"r  c #2E1C1A",
"t  c #341C16",
"y  c #391E16",
"u  c #351E19",
"i  c #391F18",
"p  c #3B2211",
"a  c #36211C",
"s  c #3B2019",
"d  c #161E25",
"f  c #2B252A",
"g  c #2D282F",
"h  c #372626",
"j  c #3A2523",
"k  c #31272A",
"l  c #36292A",
"z  c #382A2B",
"x  c #252C36",
"c  c #2E2E36",
"v  c #2B2E38",
"b  c #24333D",
"n  c #2F353E",
"m  c #323037",
"M  c #32333B",
"N  c #552207",
"B  c #442414",
"V  c #492515",
"C  c #442814",
"Z  c #4D2D16",
"A  c #452419",
"S  c #4C2618",
"D  c #4F2819",
"F  c #512F12",
"G  c #50291A",
"H  c #55331B",
"J  c #5E391E",
"K  c #6C3414",
"L  c #7E3B14",
"P  c #402723",
"I  c #452A24",
"U  c #4D2F23",
"Y  c #4B2E29",
"T  c #4F3124",
"R  c #4E302B",
"E  c #543427",
"W  c #583629",
"Q  c #5D3A2C",
"!  c #663E21",
"~  c #693C20",
"^  c #613D2E",
"/  c #64441E",
"(  c #73451B",
")  c #6D4324",
"_  c #754624",
"`  c #784724",
"'  c #754B24",
"]  c #794824",
"[  c #7C4D29",
"{  c #7B5525",
"}  c #7D5E29",
"|  c #674030",
" . c #6A4332",
".. c #7F7232",
"X. c #273642",
"o. c #2D3641",
"O. c #273946",
"+. c #2A3A46",
"@. c #293B48",
"#. c #313D4A",
"$. c #453E46",
"%. c #38414E",
"&. c #354453",
"*. c #3C4957",
"=. c #3C4958",
"-. c #3F4E5E",
";. c #45454F",
":. c #444551",
">. c #4A5261",
",. c #4F5C6E",
"<. c #515F71",
"1. c #506073",
"2. c #843E14",
"3. c #8C4417",
"4. c #8F4719",
"5. c #90501E",
"6. c #804F2B",
"7. c #8E5624",
"8. c #815927",
"9. c #965A26",
"0. c #9C5F27",
"q. c #A15E29",
"w. c #806A2F",
"e. c #817533",
"r. c #B5692B",
"t. c #B96F31",
"y. c #B77032",
"u. c #BD7433",
"i. c #BF7D39",
"p. c #C26C2D",
"a. c #C1712F",
"s. c #C27534",
"d. c #C87531",
"f. c #CE7C35",
"g. c #D07F37",
"h. c #C1883F",
"j. c #D48037",
"k. c #D38138",
"l. c #DD883B",
"z. c #E28A3C",
"x. c #E98F3F",
"c. c #ED9340",
"v. c #E79844",
"b. c #F39642",
"n. c #F69843",
"m. c #E8A54C",
"M. c #F7A048",
"N. c #F9A349",
"B. c #F2AA4E",
"V. c #F8A84C",
"C. c #F9B151",
"Z. c #F3BB56",
"A. c #FABB55",
"S. c #F7D060",
"D. c #F9DF67",
"F. c #FAE569",
/* pixels */
"5 5 5   * 5 5 5 5 5 5 *   5 5 5 5 5 5 5 & o 5 5 5 5 5 5 5   & 5 5 5 5 5 5 *   = 5 5 5 * # ",
"t t e   5 t t t t t t 5   e t t t t t t * & t t t t t t e . 5 t t t t t t w   w t t t w # ",
"s s t   e s s s s s s w   t s s s s s s * * s s s s s s i o q s s s s s s e   t s s s e # ",
"i s t   w s i i i i s w   t i i i i i i * & i i i t t i t . 5 s i i i i s e   e s i s w # ",
"Y R I   a R Y Y Y Y R a . I R Y Y Y Y Y q q Y Y Y Y Y Y I & u R Y Y Y Y R j   P R Y R a . ",
"|  .Q . T  .| | | |  .U + Q  .| | | |  .a e |  .| | |  .^ * I  .| | | |  .E   W  .|  .T   ",
"[ [ ) o J 6.[ [ [ [ 6.J # _ [ [ [ [ [ [ C p [ [ [ [ [ [ _ 3 H 6.[ [ [ [ 6.!   ) 6.[ 6.J   ",
"Z Z C   p Z Z Z Z Z Z p . C Z Z Z Z Z Z 6 3 Z Z Z Z Z Z C # 9 Z Z Z Z Z Z p   B Z Z Z p o ",
"                                                                                        $ ",
"* * $   # * * * * * * #   $ * * * * * * o . * * * * * * $   # * * * * * * #   $ * * * $ # ",
"* * $   # * * * * * * #   $ * * * * * * o . * * * * * * $   # * * * * * * #   $ * * * $ # ",
"* * $   # * * * * * * #   $ * * * * * * o . * * * * * * $   # * * * * * * #   $ * * * $ # ",
"* * $   # * * * * * * #   $ * * * * * * o . * * * * * * $   # * * * * * * #   $ * * * $ # ",
"* * $   # * * * * * * #   $ * * * * * * o . * * * * * * $   # * * * * * * #   $ * * * $ # ",
"* * $   # * * * * * * #   $ * * * * * * o . * * * * * * $   # * * * * * * #   $ * * * $ # ",
"* * $   # * * * * * * #   $ * * * * * * o . * * * * * * $   # * * * * * * #   $ * * * $ # ",
"* * $   # * * * * * * #   $ * * * * * * o . * * * * * * $   # * * * * * * #   $ * * * $ # ",
"@ @ .     @ $ $ $ $ $ #   $ $ $ $ $ $ $ . . $ $ $ $ $ $ $   o $ *                     3 # ",
"c c c x v g 5 3 5 5 5 *   5 5 5 5 5 5 5 # o 5 5 5 5 5 5 5   & 5 % / 8.{ w.e...} { { p   # ",
",.,.,.,.<.>.s 0 i i s w   t s i i i s s * & i s i i i s t . q t - h.C.B.S.F.D.Z.B.m.'   # ",
"-.-.-.*.-.=.M h y s s w   t s s s s s s * * s s s s s s i o q i - i.N.M.C.A.A.V.M.v._   # ",
"@.@.+.b O.+.o.l y s s w   t s s s s s s * & s s s s s s t o q i ; t.z.s.p.p.p.a.j.l.` O # ",
"+.+.+.+.@.n s i s s s w   t s s s s s s * & s s s s s s t o q i ; s.k.9   $ $   0.z.] O # ",
"l z k d f h i i s s s w   t s s s s s s * & s s s s s s t o q i ; s.g.          7.z.] O # ",
"y y 9   4 y s s s s s w   t s s s s s s * & s s s s s s t o q i ; u.l.9.F   3 ( u.l.` O # ",
"s s t   w s s s s s s w   t s s s s s s * & s s s s s s t o q i ; y.c.x.7.  6 f.b.l._ O # ",
"7 7 2   , 8 s s s s s w   t s s s s s s * & s s s s s s t o q i - u.b.c.7.  X f.n.z.` O # ",
";.:.;.%.:.$.i y s s s w   t s s s s s s * & s s s s s s t o q i q q.f.d.5.N K r.f.a.~ O # ",
",.,.,.,.1.>.h i s s s w   t s s s s s s * & s s s s s s t o q s u K 2.2.3.4.3.2.2.L D q # ",
"&.&.&.#.&.&.+.l y s s w   t s s s s s s * & s s s s s s t o q s s A S S G V 0 V D S s w # ",
"@.@.+.X.O.+.m h y s s w   t s s s s s s * & s s s s s s i o q s s u r r u >   q u r s e # ",
"o.o.o.X.X.m y i s s s w   t s s s s s s * & s s s s s s i o q s s s s s s e   t s s s e # ",
"a j a : r s s s s s s w   t s s s s s s * * s s s s s s i . q s s s s s s t   t s s s e # ",
"y y 6   < t e e e e t 5   w t e e e t t & & e t e e e t e   = t e e e e t q   q t s s e # ",
"i e *   * 5 5 5 5 5 5 *   5 5 5 5 5 5 5 & o 5 5 5 5 5 5 5   & 5 5 5 5 5 5 *   * e t i w # ",
"5 w 5   * w 5 5 5 5 w *   5 q 5 5 5 5 5 & o 5 5 5 5 5 5 5   * w 5 5 5 5 w =   = w 5 w 5 # ",
"5 5 5   * w 5 5 5 5 w *   5 q 5 5 5 5 5 & o 5 5 5 5 5 5 5   * w 5 5 5 5 w =   5 5 5 5 = # ",
"5 w 5   * w 5 5 5 5 w *   5 w 5 5 5 5 5 & o 5 5 5 5 5 q 5   * w 5 5 5 5 w =   5 w 5 q 5 # ",
"5 5 5   * w 5 5 5 5 w *   5 5 5 5 5 5 5 & o 5 5 5 5 5 5 5   * w 5 5 5 5 w =   = q 5 5 5 # ",
"1 1 *   & 1 1 1 1 1 1 &   * 1 1 1 1 1 1 o . 1 1 1 1 1 1 *   # 1 1 1 1 1 1 $   * 1 1 1 * # ",
"$ * $   # * $ $ $ $ * #   $ * $ $ $ $ $ o . $ $ $ $ $ * $   # * $ $ $ $ * #   # * $ $ $ # ",
"* * $   # * * * * * * #   $ * * * * * * o . * * * * * * $   # * * * * * * #   $ * * * $ # ",
"* * $   # * * * * * * #   $ * * * * * * o . * * * * * * $   # * * * * * * #   $ * * * $ # ",
"* * $   # * * * * * * #   $ * * * * * * o . * * * * * * $   # * * * * * * #   $ * * * $ # ",
"* * $   # * * * * * * #   $ * * * * * * o . * * * * * * $   # * * * * * * #   $ * * * $ # "
};
