/* XPM */
static char *bf641e9b22f54c79b35498693b53c26eYJsUCj9V9UL7cgII[] = {
/* columns rows colors chars-per-pixel */
"63 63 7 1 ",
"  c #0F121C",
". c #383C3D",
"X c #4B4B4D",
"o c #888D91",
"O c #8C9194",
"+ c #959CA2",
"@ c #A5AAAE",
/* pixels */
"                                                               ",
"++++++++++++++++++++++++++++++++++++++++++++++++++++++++++++++ ",
".@@@@@@@@@@@@@@@@@@@@@@@@@@@@@@@@@@@@@@@@@@@@@@@@@@@@@@@@@@@@+ ",
".Xoooooooooooooooooooooooooooooooooooooooooooooooooooooooooo@+ ",
"..oooooooooooooooooooooooooooooooooooooooooooooooooooooooooo@+ ",
".Xoooooooooooooooooooooooooooooooooooooooooooooooooooooooooo@+ ",
".Xoooooooooooooooooooooooooooooooooooooooooooooooooooooooooo@+ ",
".Xoooooooooooooooooooooooooooooooooooooooooooooooooooooooooo@+ ",
".Xoooooooooooooooooooooooooooooooooooooooooooooooooooooooooo@+ ",
".Xoooooooooooooooooooooooooooooooooooooooooooooooooooooooooo@+ ",
".Xoooooooooooooooooooooooooooooooooooooooooooooooooooooooooo@+ ",
".Xoooooooooooooooooooooooooooooooooooooooooooooooooooooooooo@+ ",
".Xoooooooooooooooooooooooooooooooooooooooooooooooooooooooooo@+ ",
".Xoooooooooooooooooooooooooooooooooooooooooooooooooooooooooo@+ ",
".Xoooooooooooooooooooooooooooooooooooooooooooooooooooooooooo@+ ",
".Xoooooooooooooooooooooooooooooooooooooooooooooooooooooooooo@+ ",
".Xoooooooooooooooooooooooooooooooooooooooooooooooooooooooooo@+ ",
".Xoooooooooooooooooooooooooooooooooooooooooooooooooooooooooo@+ ",
".Xoooooooooooooooooooooooooooooooooooooooooooooooooooooooooo@+ ",
".Xoooooooooooooooooooooooooooooooooooooooooooooooooooooooooo@+ ",
".Xoooooooooooooooooooooooooooooooooooooooooooooooooooooooooo@+ ",
".Xoooooooooooooooooooooooooooooooooooooooooooooooooooooooooo@+ ",
".Xoooooooooooooooooooooooooooooooooooooooooooooooooooooooooo@+ ",
".Xoooooooooooooooooooooooooooooooooooooooooooooooooooooooooo@+ ",
".Xoooooooooooooooooooooooooooooooooooooooooooooooooooooooooo@+ ",
".Xoooooooooooooooooooooooooooooooooooooooooooooooooooooooooo@+ ",
".XOooooooooooooooooooooooooooooooooooooooooooooooooooooooooo@+ ",
".Xoooooooooooooooooooooooooooooooooooooooooooooooooooooooooo@+ ",
".Xoooooooooooooooooooooooooooooooooooooooooooooooooooooooooo@+ ",
".Xoooooooooooooooooooooooooooooooooooooooooooooooooooooooooo@+ ",
".Xoooooooooooooooooooooooooooooooooooooooooooooooooooooooooo@+ ",
".Xoooooooooooooooooooooooooooooooooooooooooooooooooooooooooo@+ ",
".Xoooooooooooooooooooooooooooooooooooooooooooooooooooooooooo@+ ",
".Xoooooooooooooooooooooooooooooooooooooooooooooooooooooooooo@+ ",
".Xoooooooooooooooooooooooooooooooooooooooooooooooooooooooooo@+ ",
".Xoooooooooooooooooooooooooooooooooooooooooooooooooooooooooo@+ ",
".Xoooooooooooooooooooooooooooooooooooooooooooooooooooooooooo@+ ",
".Xoooooooooooooooooooooooooooooooooooooooooooooooooooooooooo@+ ",
".Xoooooooooooooooooooooooooooooooooooooooooooooooooooooooooo@+ ",
".Xoooooooooooooooooooooooooooooooooooooooooooooooooooooooooo@+ ",
".Xoooooooooooooooooooooooooooooooooooooooooooooooooooooooooo@+ ",
".Xoooooooooooooooooooooooooooooooooooooooooooooooooooooooooo@+ ",
".Xoooooooooooooooooooooooooooooooooooooooooooooooooooooooooo@+ ",
".Xoooooooooooooooooooooooooooooooooooooooooooooooooooooooooo@+ ",
".Xoooooooooooooooooooooooooooooooooooooooooooooooooooooooooo@+ ",
".Xoooooooooooooooooooooooooooooooooooooooooooooooooooooooooo@+ ",
".Xoooooooooooooooooooooooooooooooooooooooooooooooooooooooooo@+ ",
".Xoooooooooooooooooooooooooooooooooooooooooooooooooooooooooo@+ ",
".Xoooooooooooooooooooooooooooooooooooooooooooooooooooooooooo@+ ",
".Xoooooooooooooooooooooooooooooooooooooooooooooooooooooooooo@+ ",
".Xoooooooooooooooooooooooooooooooooooooooooooooooooooooooooo@+ ",
".Xoooooooooooooooooooooooooooooooooooooooooooooooooooooooooo@+ ",
".Xoooooooooooooooooooooooooooooooooooooooooooooooooooooooooo@+ ",
".Xoooooooooooooooooooooooooooooooooooooooooooooooooooooooooo@+ ",
".Xoooooooooooooooooooooooooooooooooooooooooooooooooooooooooo@+ ",
".Xoooooooooooooooooooooooooooooooooooooooooooooooooooooooooo@+ ",
".Xoooooooooooooooooooooooooooooooooooooooooooooooooooooooooo@+ ",
".Xoooooooooooooooooooooooooooooooooooooooooooooooooooooooooo@+ ",
".Xoooooooooooooooooooooooooooooooooooooooooooooooooooooooooo@+ ",
".Xoooooooooooooooooooooooooooooooooooooooooooooooooooooooooo@+ ",
".Xoooooooooooooooooooooooooooooooooooooooooooooooooooooooooo@+ ",
".XXXXXXXXXXXXXXXXXXXXXXXXXXXXXXXXXXXXXXXXXXXXXXXXXXXXXXXXXXXX+ ",
".............................................................. "
};
