/* XPM */
static char *_500efe19fc74c60fd7793b190746023OxAQkrOo5DSS0xDZ[] = {
/* columns rows colors chars-per-pixel */
"45 45 3 1 ",
"  c #2D8D27",
". c #4FA92D",
"X c #88CC36",
/* pixels */
"X.X. ..X . X. . ... ...  X......X.X. ..X . X.",
" . ...X ..  ... X.X.X.X.  .. X.. . ...X ..  .",
" . X..  ... ..X. . . . .. .X  X. . X..  ... .",
"... ..  .X...X ... ..X....X .   ... ..  .X...",
"..X ..... X..  . X... ..X.  .. ...X ..... X..",
"X.  .X.X.  .. ..  X.. .X . .... X.  .X.X.  ..",
" X .X . .......X.  .X.   ...X..  X .X . .....",
"  ..  ...X ..X. .. . .. .... ...  ..  ...X ..",
". .. ...X  .X ...X...X..X .. .X.. .. ...X  .X",
"...X.X.   ..  .X. ..X .X  .... ....X.X.   .. ",
".X. . .. ... .. . ..  .  .X..X ..X. . .. ... ",
"X ... .X...X.X. .... .. .. .X ..X ... .X...X.",
"  ..... ..X . ...X......X. .  X.  ..... ..X .",
" ..X .X...  ..... .X..X. ... . . ..X .X...  .",
"..X  . .X. .. X.. . X. . .X..X....X  . .X. ..",
".   ..X. ....  X...  . ... .. ...   ..X. ....",
".. .X. . ...X.  .... .... X..  X.. .X. . ...X",
"X... . ...X. .. ..X .....  X..  X... . ...X. ",
" .X..X..X. . ....X  .X....  ...  .X..X..X. . ",
" . .. .X . .. X..  .. .X .. .X.. . .. .X . ..",
".. .. .  ..X.. X. ....X  .... .X.. .. .  ..X.",
"...X...  .. ..  ....X.  ...X. . ...X...  .. .",
"... X.. ... ..  ...X . .X.X ... ... X.. ... .",
"X .  .X..X.........  ... .  .X..X .  .X..X...",
"  .. . .. . X....X. ...... .X .X  .. . .. . X",
" .X... .. .  X..X ......X...  .  .X... .. .  ",
".. .X...X...  ..  ...X.X ... .. .. .X...X... ",
"X. . X.. .X.. .. ...X .  ..X....X. . X.. .X..",
" ...  .. . X..X..X..  . .X. .X.. ...  .. . X.",
".X... .X..  .. X. .. .... . X .X.X... .X..  .",
". ..X.. ... .X  . .X.X....X.  . . ..X.. ... .",
". .. .....X.. .X... . . X. . .. . .. .....X..",
"X.X. ..X . X. . ... ...  X......X.X. ..X . X.",
" . ...X ..  ... X.X.X.X.  .. X.. . ...X ..  .",
" . X..  ... ..X. . . . .. .X  X. . X..  ... .",
"... ..  .X...X ... ..X....X .   ... ..  .X...",
"..X ..... X..  . X... ..X.  .. ...X ..... X..",
"X.  .X.X.  .. ..  X.. .X . .... X.  .X.X.  ..",
" X .X . .......X.  .X.   ...X..  X .X . .....",
"  ..  ...X ..X. .. . .. .... ...  ..  ...X ..",
". .. ...X  .X ...X...X..X .. .X.. .. ...X  .X",
"...X.X.   ..  .X. ..X .X  .... ....X.X.   .. ",
".X. . .. ... .. . ..  .  .X..X ..X. . .. ... ",
"X ... .X...X.X. .... .. .. .X ..X ... .X...X.",
"  ..... ..X . ...X......X. .  X.  ..... ..X ."
};
