/* XPM */
static char *_769a3e43534408ea79829dbde228dfaGCZY0KNlVkicLtZx[] = {
/* columns rows colors chars-per-pixel */
"45 45 212 2 ",
"   c None",
".  c #000000",
"X  c #000009",
"o  c #000C08",
"O  c #130000",
"+  c #1F0203",
"@  c #14000A",
"#  c #1A0909",
"$  c #230000",
"%  c #2A0009",
"&  c #2C0F0A",
"*  c #250909",
"=  c #3C0003",
"-  c #300F0A",
";  c #3B0F0A",
":  c #35020A",
">  c #2E100B",
",  c #2F180A",
"<  c #33100B",
"1  c #38120C",
"2  c #3E3500",
"3  c #332208",
"4  c #440004",
"5  c #4E0003",
"6  c #4D0209",
"7  c #4D0D09",
"8  c #420F0A",
"9  c #52000B",
"0  c #540F0A",
"q  c #5B0F0B",
"w  c #5B0006",
"e  c #44120C",
"r  c #4B130C",
"t  c #4F180D",
"y  c #53120A",
"u  c #5C110C",
"i  c #5F1107",
"p  c #690101",
"a  c #66000E",
"s  c #72000F",
"d  c #780000",
"f  c #61130D",
"g  c #60180C",
"h  c #6A0011",
"j  c #770B11",
"k  c #661710",
"l  c #7A1511",
"z  c #7F1813",
"x  c #731511",
"c  c #77160F",
"v  c #47200D",
"b  c #522809",
"n  c #442519",
"m  c #5F2B10",
"M  c #61230C",
"N  c #6F2C0E",
"B  c #563225",
"V  c #7D3322",
"C  c #57450D",
"Z  c #54480F",
"A  c #634408",
"S  c #655A0C",
"D  c #6B4431",
"F  c #7D6545",
"G  c #830000",
"H  c #950000",
"J  c #820113",
"K  c #8C0014",
"L  c #8D0A14",
"P  c #930016",
"I  c #9D0018",
"U  c #9B0017",
"Y  c #851813",
"T  c #881513",
"R  c #931D15",
"E  c #9B1B17",
"W  c #9D1E18",
"Q  c #991417",
"!  c #841D0E",
"~  c #A20119",
"^  c #A20D18",
"/  c #B4001D",
"(  c #A31D19",
")  c #B11B1C",
"_  c #A3070A",
"`  c #802A12",
"'  c #9C2A18",
"]  c #903817",
"[  c #A32219",
"{  c #AD221A",
"}  c #AB2A1A",
"|  c #A32919",
" . c #B32C1B",
".. c #B1231A",
"X. c #A43619",
"o. c #AC341A",
"O. c #A33A18",
"+. c #B5321C",
"@. c #BC351D",
"#. c #B43B1C",
"$. c #BF3F1E",
"%. c #913528",
"&. c #C43D1F",
"*. c #C4371E",
"=. c #CE0022",
"-. c #CC1C21",
";. c #CC3D21",
":. c #C93720",
">. c #DB3123",
",. c #904600",
"<. c #8D4316",
"1. c #98551A",
"2. c #AB421A",
"3. c #AB5D1D",
"4. c #BD591F",
"5. c #B4541E",
"6. c #BB441F",
"7. c #AB661B",
"8. c #B2611D",
"9. c #965A3E",
"0. c #AF5039",
"q. c #AC4431",
"w. c #97603E",
"e. c #A26B20",
"r. c #BF6422",
"t. c #BE6739",
"y. c #D37F1E",
"u. c #CC4421",
"i. c #C74B20",
"p. c #D24622",
"a. c #D54923",
"s. c #DB4A23",
"d. c #CC5C24",
"f. c #C35121",
"g. c #D45A24",
"h. c #E54C24",
"j. c #C46D21",
"k. c #CA6623",
"l. c #D26C24",
"z. c #C67322",
"x. c #CD7E20",
"c. c #D47524",
"v. c #DA7426",
"b. c #D67925",
"n. c #DD7C26",
"m. c #CF753A",
"M. c #E47B27",
"N. c #E17727",
"B. c #E66526",
"V. c #A95544",
"C. c #846344",
"Z. c #886646",
"A. c #836847",
"S. c #8E7352",
"D. c #B67354",
"F. c #C67D5D",
"G. c #AE9B0E",
"H. c #B49D17",
"J. c #AB9317",
"K. c #B8A915",
"L. c #CA8F1F",
"P. c #CC9F1D",
"I. c #D8901D",
"U. c #D3A71B",
"Y. c #D9B619",
"T. c #CCAD18",
"R. c #E4BA1D",
"E. c #DB8925",
"W. c #D99A21",
"Q. c #E48429",
"!. c #ED8529",
"~. c #E79624",
"^. c #F28D2C",
"/. c #CFA92D",
"(. c #ECBF22",
"). c #E5B02B",
"_. c #D6C217",
"`. c #E8C91D",
"'. c #E8D21C",
"]. c #F3D51F",
"[. c #FAE61F",
"{. c #E8C929",
"}. c #BA885C",
"|. c #AA936E",
" X c #AC9571",
".X c #BAA47B",
"XX c #ADA179",
"oX c #D4815D",
"OX c #C78964",
"+X c #DE9069",
"@X c #D0986C",
"#X c #E38E66",
"$X c #EA9F75",
"%X c #F0A075",
"&X c #E7AE7C",
"*X c #CFAF86",
"=X c #D3BC8D",
"-X c #DFB688",
";X c #F4C187",
":X c #F7C388",
">X c #FAC58A",
",X c #F9CD97",
"<X c #FCD298",
"1X c #E5C695",
"2X c #EFD7A1",
"3X c #F3D9A3",
"4X c #FDDBA4",
"5X c #FEE6AD",
"6X c #FFE9AF",
"7X c #FFEAB0",
"8X c #FFFABC",
"9X c #FFF7B9",
/* pixels */
"                                                                                          ",
"                                                                                          ",
"                                                                                          ",
"              -                               < - - - -                                   ",
"              - <                         < + . . . + <                                   ",
"              - <                         . 5 V 9.%.i &                                   ",
"              - <                         n 9.F.$X+XD.                                    ",
"              - <                         oX:X3X4X7X3X                                    ",
"              . .                           4X7XXX.XXX                                    ",
"              S.                            ,X1X5 . w                                     ",
"            5X7X              ;.s.p.+.J M c.m.V.V.V.t.n.2. .a.u.s.p.                      ",
"            8X8X            [.~.=.) { T y 2.d.E.{.{.).g.z Y *.a.>.-.;.                    ",
"          |.=X=X X          T.R.E.4.' j l K #.y.Y._.W.:.z q T / E.~.B.#.                  ",
"      & 1 + . . O n B n $   @ K.].E.<.a [ [ [ ^ ~ U ) u. .j 1 ' Y.{.b.i.Q                 ",
"        < - $ . . C.&X      ' ,.A b ! E [ &.u.u.;.;.u.u. .a S `.G.2 m M.M.                ",
"        - * r X.p A.>X}.  3X-X*X.XD.q._ [ +.@.&.p.a.a.p. .s Z /.e.w x j.                  ",
"        - # t $.G F ;Xw.|.9X7X5X,X%X0.H [ W Q [ &.u.u.&.} p B V.F.OXOX                    ",
"        - < - < . C.;X9.|.6X6X<X#X  = Y [ [ [ [ [ [ [ [ c .   #X,X5X3X                    ",
"        - # t #.d F :XOX              f l ' [ E E Q E E         $X4X6X7X                  ",
"        & # t #.d F :X                  7 z E [ +.+.@.+.          @X=X3X=X                ",
"        - < & # . Z.:X                  q 7 l } u.u.p.u.            4 O .                 ",
"        - < & & . Z.:X              ^.k.K P s 6 a 9 = u c.          $ $ #                 ",
"        - < - - . Z.:X              3.l.k.k.4.7.K.K.J.3.j.8.        .XD .                 ",
"        - < - - . Z.:X              . <.b.b.v.~.`.].(.c.` 4         7X.XD                 ",
"        - < - - . Z.:X            7 6 y M 6 8.n.2.c.z.g R ( W       7X8X2X                ",
"        - < - - . Z.:X            o.$.o.J = 8.v.I d.k.4 Q @.&.u.                          ",
"        - < - - . Z.:X            a.a.@.E 9 3.v.( E.L.9 L @.s.h.a.                        ",
"        - < - - . Z.:X        u.h.u.} E W 9 7.n.~ R._.6 K @.u.u.h.u.                      ",
"        - < - - . Z.:X      Q.f.~ ~ U Q W : H.(.[ R._.% K ^ ~ ~ / ~                       ",
"        - < - - . Z.:X        W.U.U.x.6.P @ K.].X.W.P.% 5.d.j.P.R.U.                      ",
"        - < - - . Z.:X          [.'.W.d.X.: H.`.O.g.r.< j.v.E.`.[.'.                      ",
"        - < - - . Z.:X          A A 3 1.n.m 7.E.[ l.z.@ v b b C C Z                       ",
"        - < - - . Z.:X      , % 9 K J ] 1.  z.N.[ v.n.  X X @ % h K [                     ",
"        - < - - . Z.:X      & ; f R [ j .     !.E N.!.  @ & ; 0 Y [ {                     ",
"        - < - - . Z.:X      - > ; 0 q 0       M.| v.Q.        0 7 x [                     ",
"        - < - - . Z.:X      & e 0 0             M.c.          0 8 e u                     ",
"        - < - - . Z.:X      & r q u             Q.            q y - o                     ",
"        - < - - . Z.:X      - r 0 0                           0 u q                       ",
"        - < - - . Z.:X      0 u 0                             - y u                       ",
"        - < - - . Z.:X      0 f 0                             & y q                       ",
"        - < - - . Z.:X      0 u 0                             & r 7                       ",
"        - < - - . Z.:X    < 0 u 0                             - > ; 0 u 0                 ",
"        - 1 < < . S.<X    r R { R                               o k [ ..R                 ",
"          - < < . C.;X    e W {                                   k [ [                   ",
"                                                                                          "
};
