/* XPM */
static char *_07afa6f67bf4d7793a9bc338a0b1391OuOzLOk4b0BfXtll[] = {
/* columns rows colors chars-per-pixel */
"45 45 7 1 ",
"  c #211212",
". c #3B2A1A",
"X c #503712",
"o c #635021",
"O c #A46331",
"+ c #B9AD65",
"@ c #E0D278",
/* pixels */
"..  XXXooooo.. XX OOOOOOXXXooooo..  XXXooooo.",
"..  XXXXooo... X OOOOOOO XXooo....  XXXXooo..",
"..   XXXXXX... X OOoooOO XXXXo....   XXXXXX..",
". oo. XXXXX..   OOOooooo XXXX.... oo. XXXXX..",
". oo.           OOooooo.. XXX.... oo.        ",
" oo. oOOoo..    XXooooo.. XXX... oo. oOOoo.. ",
" XX. oOOoo...   XXooooo.. XXXX.. XX. oOOoo...",
" X.. oOOOOo...  XXooooo..  XXX.. X.. oOOOOo..",
" X. ooOOOOo...  XXXooo...        X. ooOOOOo..",
"o  XXoooOOoo..  XXXXXX...   ooooo  XXoooOOoo.",
"o. XXXXooooo.. o XXXXX...   Xoooo. XXXXooooo.",
"o. XXXXXXooo.. oo XXXXX..     XXo. XXXXXXooo.",
".. XXXXXXoo... Xo. XXXX.   OO@ X.. XXXXXXoo..",
"X. XXXXXXXX... XX..      OOOOOo X. XXXXXXXX..",
" .  XXXXXXX..            OOOOooo .  XXXXXXX..",
".   XXXXXX...  o+ooo..   XXoooo..   XXXXXX...",
".    XXXXX..  oOOOOo...  XXXooo..    XXXXX.. ",
".             oOOOOoo..   XXXX...            ",
".        ooo. oOOOOo... o XXXX...        ooo.",
"     o   ooo. oooooo.. ooo XXX..     o   ooo.",
"  ooooo. ooo. oooooo.. oOOo       ooooo. ooo.",
"ooooooo. Xo. XXXooXX... oOOo.   ooooooo. Xo. ",
"oooooo.. XX. XXXXXXX... Xooo.  ooooooo.. XX. ",
"oooooo... X. XXXXXXX... Xoo.. oooooooo... X. ",
"ooooo.... X   XXXXXX.. XXX... ooooooo.... X  ",
"ooooo....      XXXXX.. XXX... XXooooo....    ",
"XXXXX.       OO         X.     XXXXXX.       ",
"XXXX. oooooo OOOoooo.     oooo XXXXX. oooooo ",
"XXXX ooOOOOo OOOOooo..   ooOOO XXXXX ooOOOOo ",
"XXXX ooOOOOo  OOoooo..   ooOOOo XXXX ooOOOOo ",
"   X ooOOOOo   XXX....   ooOOOO    X ooOOOOo ",
"..  XXoooooo.. oX.      XXXoOOOo..  XXoooooo.",
"..  XXXooooo.. XX OOOOOOXXXooooo..  XXXooooo.",
"..  XXXXooo... X OOOOOOO XXooo....  XXXXooo..",
"..   XXXXXX... X OOoooOO XXXX.....   XXXXXX..",
". oo. XXXXX..   OOOooooo XXXX.... oo. XXXXX..",
". oo.           OOooooo.. XXX.... oo.        ",
" oo. oOOoo..    XXooooo.. XXX... oo. oOOoo.. ",
" XX. oOOoo...   XXooooo.. XXXX.. XX. oOOoo...",
" X.. oOOOOo...  XXooooo..  XXX.. X.. oOOOOo..",
" X. ooOOOOo...  XXXooo...        X. ooOOOOo..",
"o  XXoooOOoo..  XXXXXX...   ooooo  XXoooOOoo.",
"o. XXXXooooo.. o XXXXX...   Xoooo. XXXXooooo.",
"o. XXXXXXooo.. oo XXXXX..     XXo. XXXXXXooo.",
".. XXXXXXoo... Xo. XXXX.   OOO X.. XXXXXXoo.."
};
