/* XPM */
static char *_36197eab51f4599ee922d9b7cac8e3cBVOI5xWP0eZkEqqh[] = {
/* columns rows colors chars-per-pixel */
"68 68 221 2 ",
"   c None",
".  c black",
"X  c #000001",
"o  c #000101",
"O  c #010101",
"+  c #010102",
"@  c #010203",
"#  c #020202",
"$  c #020203",
"%  c gray1",
"&  c #020204",
"*  c #020304",
"=  c #020305",
"-  c #030305",
";  c #030404",
":  c #030406",
">  c #040404",
",  c #040405",
"<  c gray2",
"1  c #050506",
"2  c #040407",
"3  c #040507",
"4  c #050606",
"5  c #060606",
"6  c #060707",
"7  c #070707",
"8  c #040508",
"9  c #050609",
"0  c #05060A",
"q  c #05070A",
"w  c #06070B",
"e  c #06070C",
"r  c #070808",
"t  c #06080C",
"y  c #07080C",
"u  c #07080D",
"i  c #07090E",
"p  c gray3",
"a  c #080809",
"s  c #080909",
"d  c #090909",
"f  c #09090A",
"g  c #090A0A",
"h  c gray4",
"j  c #0A0A0B",
"k  c #0A0B0B",
"l  c #0B0B0B",
"z  c #08090E",
"x  c #0B0C0C",
"c  c #0C0C0C",
"v  c #0C0C0D",
"b  c #0C0D0D",
"n  c gray5",
"m  c #0D0D0E",
"M  c #0D0E0E",
"N  c #0D0E0F",
"B  c #0E0E0E",
"V  c #0E0E0F",
"C  c #0E0F0F",
"Z  c gray6",
"A  c #0F0F10",
"S  c #0E1010",
"D  c #0F1010",
"F  c #0F1011",
"G  c #101010",
"H  c #101011",
"J  c #101111",
"K  c #101112",
"L  c #111112",
"P  c #101212",
"I  c #111212",
"U  c #111213",
"Y  c gray7",
"T  c #121213",
"R  c #121313",
"E  c #131313",
"W  c #121314",
"Q  c #131314",
"!  c #121414",
"~  c #131414",
"^  c #131415",
"/  c #131515",
"(  c #141415",
")  c #151515",
"_  c #151615",
"`  c #141516",
"'  c #151516",
"]  c #141616",
"[  c #151616",
"{  c #151617",
"}  c #151717",
"|  c #161716",
" . c #161617",
".. c #161717",
"X. c #161718",
"o. c #171718",
"O. c #161818",
"+. c #171818",
"@. c #171819",
"#. c #171919",
"$. c #181818",
"%. c #181819",
"&. c #181919",
"*. c #18191A",
"=. c #19191A",
"-. c #181A1B",
";. c #191A1B",
":. c #191B1B",
">. c #1A1A1B",
",. c #1A1B1B",
"<. c #1B1B1B",
"1. c #191B1C",
"2. c #1A1B1C",
"3. c #1B1B1C",
"4. c #1A1C1C",
"5. c #1A1C1D",
"6. c #1B1C1D",
"7. c #1B1D1D",
"8. c #1C1C1D",
"9. c #1C1D1D",
"0. c #1C1D1E",
"q. c #1D1D1E",
"w. c #1C1E1E",
"e. c #1D1E1F",
"r. c #1E1E1F",
"t. c #1E1F1F",
"y. c #1E1F20",
"u. c #1F1F20",
"i. c #1F2021",
"p. c #1F2022",
"a. c #202021",
"s. c #202122",
"d. c #212122",
"f. c #202223",
"g. c #212223",
"h. c #222223",
"j. c #222324",
"k. c #232324",
"l. c #222325",
"z. c #232425",
"x. c #232426",
"c. c #232526",
"v. c #242526",
"b. c #242627",
"n. c #252728",
"m. c #262728",
"M. c #272829",
"N. c #27282A",
"B. c #28292A",
"V. c #28292B",
"C. c #282A2B",
"Z. c #292A2B",
"A. c #292B2C",
"S. c #292B2D",
"D. c #2A2B2C",
"F. c #2A2C2D",
"G. c #2B2C2D",
"H. c #2B2D2E",
"J. c #2C2D2E",
"K. c #2C2E2F",
"L. c #2C2E30",
"P. c #2D2F30",
"I. c #2E2F30",
"U. c #2E3031",
"Y. c #2E3032",
"T. c #2F3132",
"R. c #2F3133",
"E. c #303233",
"W. c #313233",
"Q. c #313234",
"!. c #313334",
"~. c #303335",
"^. c #323335",
"/. c #323435",
"(. c #323436",
"). c #323537",
"_. c #333537",
"`. c #343537",
"'. c #333638",
"]. c #343638",
"[. c #343738",
"{. c #353739",
"}. c #363739",
"|. c #353839",
" X c #35383A",
".X c #36383A",
"XX c #36393B",
"oX c #37393B",
"OX c #38393B",
"+X c #393B3C",
"@X c #383B3D",
"#X c #3A3C3D",
"$X c #393C3E",
"%X c #3B3D3E",
"&X c #3B3D3F",
"*X c #3C3E3F",
"=X c #3A3D40",
"-X c #3C3E40",
";X c #3C3F41",
":X c #3E4042",
">X c #3E4143",
",X c #3F4143",
"<X c #3F4245",
"1X c #404244",
"2X c #414344",
"3X c #414447",
"4X c #434546",
"5X c #424548",
"6X c #454748",
"7X c #44474A",
"8X c #45484B",
"9X c #46484A",
"0X c #46494C",
"qX c #484A4C",
"wX c #494B4D",
"eX c #484B4E",
"rX c #4B4D4F",
"tX c #4A4D50",
"yX c #4C4F51",
"uX c #4E5052",
"iX c #505254",
/* pixels */
"                                                                                                                                        ",
"                                                                                                                                        ",
"                                                                                                                                        ",
"    z z z z z z z z z z z z z z z z z z z z z z z z z z z z z z z z z z z z z z z z z u z z z z z z z z z z z z z z z z z z z z z z z z ",
"    u tXtXtXtXtXtXtXtXtXtXtXtXtXtXtXtXtXtXtXtXtXtXtXtXtXtXtXtXtXrXrXtXtXtXtXtXtXtXrXrXrXtXtXtXtXtXtXtXtXtXtXtXtXtXtXtXtXtXtXtXtXtXu u tX",
"    u 4.iXiXiXiXiXiXiXiXiXiXiXiXiXiXiXiXiXiXiXiXiXiXiXiXiXiXiXiXuXuXiXiXiXiXiXiXiXiXuXuXiXiXiXiXiXiXiXiXiXiXiXiXiXiXiXiXiXiXiXiXwXu u 4.",
"    u 4.k.1X1X1X1X1X1X1X1X1X1X1X1X1X1X1X1X1X1X1X1X1X1X1X1XoXoXoXoXoXoXoXoXoXoXoXoXoXoXoXoXoXoXoX1X1X1X1X1X1X1X1X1X1X1X1X1X1X1XuX0Xu u 4.",
"    u 4.4.,X,X,X,X,X,X,X,X,X,X,X,X,X,X,X,X,X,X,X,X,X,X,X,XoXoXoXoXoXoXoXoXoXoXoXoXoXoXoXoXoXoXoX,X,X,X,X,X,X,X,X,X,X,X,X,X,X,XyX9Xu u 4.",
"    u 1.h.,X,X,X,X,X,X,X,X,X,X,X,X,X,X,X,X,X,X,X,X,X,X,X,X{.{.{.{.{.{.{.{.{.{.{.`.`.{.{.{.{.{.{.,X,X,X,X,X,X,X,X,X,X,X,X,X,X,XrX6X*.u 1.",
"    u *.h.-X-X-X-X-X-X-X-X-X-X-X-X-X-X-X-X-X-X-X-X-X-X-X-X_._._._._._._._._._._._._._._._._._._.-X-X-X-X-X-X-X-X-X-X-X-X-X-X-XwX5X#.u *.",
"    u *.h.&X&X&X&X&X&X&X&X&X&X&X&X&X&X&X&X&X&X&X&X&X&X&X&X_._._._._._._._._._._._._._._._._._._.&X&X&X&X&X&X&X&X&X&X&X&X&X&X&XwX4X#.u *.",
"    u *.h.&X&X&X&X&X&X&X&X&X&X&X&X&X&X&X&X&X&X&X&X&X&X&X&X^.^.^.^.^.^.&X&X&X&X&X&X&X&X&X&X&X&X&X&X&X&X&X&X&X&X&X&X&X&X&X&X&X&X9X<X..u *.",
"    e #.u.+X+X+X+X+X+X+X+X+X+X+X+X+X+X+X+X+X+X+X+X+X+X+X+XE.E.E.E.E.E.+X+X+X+X+X+X+X+X+X+X+X+X+X+X+X+X+X+X+X+X+X+X+X+X+X+X+X+X6X,X..e #.",
"    w #.q.oXoXoXoXoXoXoXoXoXoXoXoXoXoXoXoXoXoXoXoXoXoXoXoXT.T.T.T.T.T.oXoXoXoXoXoXoXoXoXoXoXoXoXoXoXoXoXoXoXoXoXoXoXoXoXoXoXoX4X-X..w #.",
"    w #.q.{.{.{.{.{.{.{.{.{.{.{.{.{.{.{.{.{.{.{.{.{.{.{.{.P.P.P.P.P.P.{.{.{.{.{.{.{.{.{.{.{.{.{.{.{.{.{.{.{.{.{.{.{.{.{.{.{.{.1X=X..w #.",
"    w ..q.{.{.{.{.{.{.K.K.K.K.K.K.K.K.K.K.K.K.K.K.K.K.K.K.K.K.K.K.K.K.{.{.{.{.{.{.{.`.`.{.{.{.{.{.{.{.{.{.{.{.{.{.{.{.{.{.{.{.,X&Xw w ..",
"    w ..q._._._._._._.G.G.G.G.G.G.G.G.G.G.G.G.G.G.G.G.G.G.G.G.G.G.G.G._._._._._._._._._._._._._._._._._._._._._._._._._._._._.,X+Xw w ..",
"    w ..1.^.^.^.^.^.^.G.G.G.G.G.G.G.G.G.G.G.G.G.G.G.G.G.G.G.G.G.G.G.G.^.^.^.^.^.^.^.^.^.^.^.^.^.^.^.^.^.^.^.^.^.^.^.^.^.^.^.^.*XoXw w ..",
"    w ..*.^.^.^.^.^.^.D.D.D.D.D.D.D.D.D.D.D.D.D.D.D.D.D.D.D.D.D.D.D.D.^.^.^.^.^.^.^.^.^.^.^.^.^.^.^.^.^.^.^.^.^.^.^.^.^.^.^.^.&XoXw w ..",
"    w / *.T.T.T.T.T.T.V.V.V.V.V.V.V.V.V.V.V.V.V.V.V.V.V.V.V.V.V.V.V.V.T.T.T.T.T.T.T.T.T.T.T.T.T.T.T.T.T.T.T.T.T.T.T.T.T.T.T.T.+X'.w w / ",
"    w / *.T.T.T.T.T.T.N.N.N.N.N.N.N.N.N.N.N.N.N.N.N.N.N.N.N.N.N.N.N.N.T.T.T.T.T.T.T.T.T.T.T.T.T.T.T.T.T.T.T.T.T.T.T.T.T.T.T.T.OX_.w w / ",
"    w / *.K.K.K.K.K.K.m.m.m.m.m.m.m.m.m.m.m.m.m.m.m.m.m.m.m.m.m.m.m.m.K.K.K.K.K.K.K.K.K.K.K.K.K.K.K.K.K.K.K.K.K.K.K.K.K.K.K.K.{.^.w w ! ",
"    w U *.G.G.G.G.G.G.b.b.b.b.b.b.b.b.b.b.b.b.b.b.b.b.b.b.b.b.b.b.b.b.G.G.G.G.G.G.G.G.G.G.G.G.G.G.G.G.G.G.G.G.G.G.G.G.G.G.G.G.`.T.w w U ",
"    w U o.D.D.D.D.D.D.D.D.D.D.D.D.D.D.D.D.D.D.D.D.D.D.D.D.x.x.x.x.x.x.D.D.D.D.D.D.D.D.D.D.D.D.D.D.D.D.D.D.D.D.D.D.D.D.D.D.D.D._.T.w w U ",
"    w U ..V.V.V.V.V.V.V.V.V.V.V.V.V.V.V.V.V.V.V.V.V.V.V.V.k.k.k.k.k.k.V.V.V.V.V.V.V.V.V.V.V.V.V.V.V.V.V.V.V.V.V.V.V.V.V.V.V.V.E.P.w w U ",
"    w U ..N.N.N.N.N.N.N.N.N.N.N.N.N.N.N.N.N.N.N.N.N.N.N.N.h.h.h.h.h.h.N.N.N.N.N.N.N.N.N.N.N.N.N.N.N.N.N.N.N.N.N.N.N.N.N.N.N.N.T.G.w w U ",
"    w U ..m.m.m.m.m.m.m.m.m.m.m.m.m.m.m.m.m.m.m.m.m.m.m.m.h.h.h.h.h.h.m.m.m.m.m.m.m.m.m.m.m.m.m.m.m.m.m.m.m.m.m.m.m.m.m.m.m.m.P.D.w w U ",
"    3 D ..b.b.b.b.b.b.b.b.b.b.b.b.b.b.b.b.b.b.b.b.b.b.b.b.i.i.i.i.i.i.b.b.b.b.b.b.b.b.b.b.b.b.b.b.b.b.b.b.b.b.b.b.b.b.b.b.b.b.K.V.3 3 D ",
"    3 D Q x.x.x.x.x.x.x.x.x.x.x.x.x.x.x.x.x.x.x.x.x.x.x.x.u.u.u.u.u.u.x.x.x.x.x.x.x.x.x.x.x.x.x.x.x.x.x.x.x.x.x.x.x.x.x.x.x.x.G.N.3 3 D ",
"    3 M U x.k.k.k.k.k.k.k.k.k.k.k.k.k.k.k.k.k.k.k.k.k.k.k.q.q.q.q.q.q.k.k.k.k.k.k.k.k.k.k.k.k.k.k.k.k.k.k.k.k.k.k.k.k.k.k.k.k.V.m.3 3 M ",
"    3 M U h.h.h.h.h.h.h.h.h.h.h.h.h.h.h.h.h.h.h.h.h.h.h.h.4.4.4.4.4.4.h.h.h.h.h.h.h.h.h.h.h.h.h.h.h.h.h.h.h.h.h.h.h.h.h.h.h.h.N.x.3 3 M ",
"    : M U i.i.i.i.i.i.i.i.i.i.i.i.i.i.i.i.i.i.i.i.i.i.i.i.1.1.1.1.1.1.i.i.i.i.i.i.i.i.i.i.i.i.i.i.i.i.i.i.i.i.i.i.i.i.i.i.i.i.m.k.: : M ",
"    : M U q.q.q.q.q.q.q.q.q.q.q.q.q.q.q.q.q.q.q.q.q.q.q.q.*.*.*.*.*.*.q.q.q.q.q.q.q.q.q.q.q.q.q.q.q.q.q.q.q.q.q.q.q.q.q.q.q.q.b.h.: : M ",
"    : M U q.q.q.q.q.q.q.q.q.q.q.q.q.q.q.q.q.q.q.q.q.q.q.q.*.*.*.*.*.*.q.q.q.q.q.q.q.q.q.q.q.q.q.q.q.q.q.q.q.q.q.q.q.q.q.q.q.q.k.i.: : M ",
"    : x M 4.4.4.4.4.4.4.4.4.4.4.4.4.4.4.4.4.4.4.4.4.4.4.4.#.#.#.#.#.#.4.4.4.4.4.4.4.4.4.4.4.4.4.4.4.4.4.4.4.4.4.4.4.4.4.4.4.4.h.u.: : x ",
"    - k M *.*.*.*.*.*.*.*.*.*.*.*.,.*.*.*.*.*.*.*.*.*.*.*.............*.*.*.*.*.*.*.*.*.*.*.*.*.*.*.*.*.*.*.*.*.*.*.*.*.*.*.*.i.q.- - k ",
"    - k M *.*.*.*.*.*.*.*.*.*.*.*.*.*.*.*.*.*.*.*.*.*.*.*.............*.*.*.*.*.*.*.*.*.*.*.*.*.*.*.*.*.*.*.*.*.*.*.*.*.*.*.*.q.4.- - k ",
"    - k M #.#.#.#.#.#.#.#.#.#.#.#.#.#.#.#.#.#.#.#.#.#.#.#./ / / / / / #.#.#.#.#.#.#.#.#.#.#.#.#.#.#.#.#.#.#.#.#.#.#.#.#.#.#.#.q.*.- - k ",
"    - k M ......................Q Q Q Q Q Q Q Q Q Q Q Q Q Q Q Q Q Q Q Q Q Q Q Q Q Q Q Q Q Q Q Q Q Q Q Q Q Q Q Q Q Q Q Q Q Q Q 1.*.- - k ",
"    - k k ......................U U U U U U U U U U U U U U U U U U U U U U U U U U U U U U U U U U U U U U U U U U U U U U U *.o.- - k ",
"    - k k Q Q Q Q Q Q Q Q Q Q Q U U U U U U U U U U U U U U U U U U U U H U U U U U U U H U U U U U U U U U U U U U U U U U U o...- - k ",
"    - r k U U U U U U U U U U U D D D D D D D D D D D D D D D D D D D D D D D D D D D D A A D D D D D D D D D D D D D D D D D ../ - - r ",
"    % 3 k U U U U U U U U U U U M M M M M M M M M M M M M M M M M M M M M M M M M M M M M M M M M M M M M M M M M M M M M M M / U % % 3 ",
"    % 3 k A A A A A A A A A A A A A A A A A A A A A A A A M M M M M M M M M M M M M M M M M M M A A A A A A A A M M M M M M M U U % % 3 ",
"    % 3 k M M M M M M M M M M M M M M M M M M M M M M M M M M M M M v v v v M M M M v v v v M M M M M M M M M M v v M M M M M U A % % 3 ",
"    % 3 3 M M M M M M M M M M M M M M M M M M M M M M M M k k k k k k k k k k k k k k k k k k k M M M M M M M M k k k k k k k A M % % 3 ",
"    % 3 3 x x x x x x x x x x x x x x x x x x x x x x z x k k k k k k k k k k k k k k k k k k k x x x x x x x z k k k k k k k M M % % 3 ",
"    % 3 3 k k k k k k k k k k k k k k k k k k k k k k k k k k k k k k k p p p k k k k p p p k k k k k k k k k k p p k p k k k M k % % % ",
"    % : - k k k k k k k k k k k k k k k k k k k k k k k k k k k k k k k k k w w k k k k k k w w k k k k k k k k 3 3 7 3 7 3 3 k k % % % ",
"    % % % 3 3 3 3 3 3 3 3 3 3 3 3 3 3 3 3 3 3 3 3 7 3 3 3 3 3 3 3 3 3 3 3 3 3 3 3 3 3 3 3 3 3 3 3 3 3 3 3 3 3 3 3 3 3 3 3 3 3 k 3 % % % ",
"    % % % 3 3 3 3 3 3 3 3 3 3 3 3 3 3 3 3 3 3 3 3 3 3 3 3 3 3 3 3 3 3 3 3 3 3 3 3 3 3 3 3 3 3 3 3 3 3 3 3 3 3 3 3 3 3 3 3 3 3 3 3 % % % ",
"    % % % - - - 3 3 3 3 3 3 3 3 - - - - 3 3 3 > 3 3 3 3 - - - - 3 3 3 3 3 3 - - 3 3 3 3 3 3 - - 3 3 3 3 - - - - 3 > > > 3 3 3 3 3 % % % ",
"    % % % % % % % % % % % % % % % % % % % % % % % % % % % % % % % % % % % % % % % % % % % % % % % % % % % % % % % % % % % % % % % % % % ",
"    % % % % % % % % % % % % % % % % % % % % % % % % % % % % % % % % % % % % % % % % % % % % % % % % % % % % % % % % % % % % % % % % % % ",
"    % % % % % % % % % % % % % % % % % % % % % % % % % % % % % % % % % % % % % % % % % % % % % % % % % % % % % % % % % % % % % % % % % % ",
"    % % % % % % % % % % % % % % % % % % % % % % % % % % % % % % % % % % % % % % % % % % % % % % % % % % % % % % % % % % % % % % % % % % ",
"    % % % % % % % % % % % % % % % % % % % % % % % % % % % % % % % % % % % % % % % % % % % % % % % % % % % % % % % % % % % % % % % % % % ",
"    % % % % % % % % % % % % % % % % % % % % % % % % % % % % % % % % % % % % % % % % % % % % % % % % % % % % % % % % % % % % % % % % % % ",
"    % % % % % % % % % % % % % % % % % % % % % % % % % % % % % % % % % % % % % % % % % % % % % % % % % % % % % % % % % % % % % % % % % % ",
"    % % % % % % % % % % % % % % % % % % % % % % % % % % % % % % % % % % % % % % % % % % % % % % % % % % % % % % % % % % % % % % % % % % ",
"    % % % % % % % % % % % % % % % % % % % % % % % % % % % % % % % % % % % % % % % % % % % % % % % % % % % % % % % % % % % % % % % % % % ",
"    % % % % % % % % % % % % % % % % % % % % % % % % % % % % % % % % % % % % % % % % % % % % % % % % % % % % % % % % % % % % % % % % % % ",
"    % % % % % % % % % % % % % % % % % % % % % % % % % % % % % % % % % % % % % % % % % % % % % % % % % % % % % % % % % % % % % % % % % % ",
"    % % % % % % % % % % % % % % % % % % % % % % % % % % % % % % % % % % % % % % % % % % % % % % % % % % % % % % % % % % % % % % % % % % ",
"    % % % % % % % % % % % % % % % % % % % % % % % % % % % % % % % % % % % % % % % % % % % % % % % % % % % % % % % % % % % % % % % % % % ",
"    % % % % % % % % % % % % % % % % % % % % % % % % % % % % % % % % % % % % % % % % % % % % % % % % % % % % % % % % % % % % % % % % % % ",
"    % % % % % % % % % % % % % % % % % % % % % % % % % % % % % % % % % % % % % % % % % % % % % % % % % % % % % % % % % % % % % % % % % % ",
"                                                                                                                                        "
};
